<?xml version="1.0" ?>
<!-- Uploaded to: SVG Repo, www.svgrepo.com, Generator: SVG Repo Mixer Tools -->
<svg width="800px" height="800px" viewBox="0 0 32 32" id="Layer_1" version="1.1" xml:space="preserve" xmlns="http://www.w3.org/2000/svg" xmlns:xlink="http://www.w3.org/1999/xlink">
<style type="text/css">
	.st0{fill:#00BBB4;}
	.st1{fill:#1B75BC;}
	.st2{fill:#F15A29;}
</style>
<g>
<path class="st1" d="M16,9C9.9248753,9,5,13.9248753,5,20s4.9248753,11,11,11s11-4.9248753,11-11S22.0751247,9,16,9z    M16,27.4716682c-4.1264915,0-7.4716692-3.3451767-7.4716692-7.4716682S11.8735085,12.5282717,16,12.5282717   S23.4716682,15.8735085,23.4716682,20S20.1264915,27.4716682,16,27.4716682z"/>
<path class="st0" d="M16,9c0.569458,0,1.1243896,0.0566406,1.6705322,0.1400757l3.2698364-5.9766846L19.5841675,1h-7.168335   l-1.3562012,2.1633911l3.2698364,5.9766846C14.8756104,9.0566406,15.430542,9,16,9z"/>
</g>
</svg>